<mxfile host="app.diagrams.net" agent="Mozilla/5.0 (Windows NT 10.0; Win64; x64) AppleWebKit/537.36 (KHTML, like Gecko) Chrome/129.0.0.0 Safari/537.36" version="24.7.17">
  <diagram name="Trang-1" id="bS0sF5I9eMwsDjas-K7B">
    <mxGraphModel dx="995" dy="635" grid="1" gridSize="10" guides="1" tooltips="1" connect="1" arrows="1" fold="1" page="1" pageScale="1" pageWidth="1169" pageHeight="827" math="0" shadow="0">
      <root>
        <mxCell id="0" />
        <mxCell id="1" parent="0" />
        <mxCell id="MggsWLU05zGPWXOIRvkV-1" value="FashionFushion" style="shape=rect;html=1;verticalAlign=top;fontStyle=1;whiteSpace=wrap;align=center;" parent="1" vertex="1">
          <mxGeometry x="200" y="40" width="680" height="780" as="geometry" />
        </mxCell>
        <mxCell id="MggsWLU05zGPWXOIRvkV-15" style="rounded=0;orthogonalLoop=1;jettySize=auto;html=1;entryX=0;entryY=0.5;entryDx=0;entryDy=0;" parent="1" source="MggsWLU05zGPWXOIRvkV-2" target="MggsWLU05zGPWXOIRvkV-5" edge="1">
          <mxGeometry relative="1" as="geometry" />
        </mxCell>
        <mxCell id="MggsWLU05zGPWXOIRvkV-17" style="rounded=0;orthogonalLoop=1;jettySize=auto;html=1;" parent="1" source="MggsWLU05zGPWXOIRvkV-2" target="MggsWLU05zGPWXOIRvkV-6" edge="1">
          <mxGeometry relative="1" as="geometry" />
        </mxCell>
        <mxCell id="MggsWLU05zGPWXOIRvkV-18" style="rounded=0;orthogonalLoop=1;jettySize=auto;html=1;" parent="1" source="MggsWLU05zGPWXOIRvkV-2" target="MggsWLU05zGPWXOIRvkV-7" edge="1">
          <mxGeometry relative="1" as="geometry" />
        </mxCell>
        <mxCell id="MggsWLU05zGPWXOIRvkV-19" style="rounded=0;orthogonalLoop=1;jettySize=auto;html=1;entryX=0;entryY=0.5;entryDx=0;entryDy=0;" parent="1" source="MggsWLU05zGPWXOIRvkV-2" target="MggsWLU05zGPWXOIRvkV-13" edge="1">
          <mxGeometry relative="1" as="geometry" />
        </mxCell>
        <mxCell id="MggsWLU05zGPWXOIRvkV-20" style="rounded=0;orthogonalLoop=1;jettySize=auto;html=1;entryX=0;entryY=0.5;entryDx=0;entryDy=0;" parent="1" source="MggsWLU05zGPWXOIRvkV-2" target="MggsWLU05zGPWXOIRvkV-8" edge="1">
          <mxGeometry relative="1" as="geometry" />
        </mxCell>
        <mxCell id="MggsWLU05zGPWXOIRvkV-21" style="rounded=0;orthogonalLoop=1;jettySize=auto;html=1;entryX=0;entryY=0.5;entryDx=0;entryDy=0;" parent="1" source="MggsWLU05zGPWXOIRvkV-2" target="MggsWLU05zGPWXOIRvkV-9" edge="1">
          <mxGeometry relative="1" as="geometry" />
        </mxCell>
        <mxCell id="MggsWLU05zGPWXOIRvkV-22" style="rounded=0;orthogonalLoop=1;jettySize=auto;html=1;entryX=0;entryY=0.5;entryDx=0;entryDy=0;" parent="1" source="MggsWLU05zGPWXOIRvkV-2" target="MggsWLU05zGPWXOIRvkV-10" edge="1">
          <mxGeometry relative="1" as="geometry" />
        </mxCell>
        <mxCell id="MggsWLU05zGPWXOIRvkV-23" style="rounded=0;orthogonalLoop=1;jettySize=auto;html=1;entryX=0;entryY=0.5;entryDx=0;entryDy=0;" parent="1" source="MggsWLU05zGPWXOIRvkV-2" target="MggsWLU05zGPWXOIRvkV-11" edge="1">
          <mxGeometry relative="1" as="geometry" />
        </mxCell>
        <mxCell id="MggsWLU05zGPWXOIRvkV-24" style="rounded=0;orthogonalLoop=1;jettySize=auto;html=1;entryX=0;entryY=0.5;entryDx=0;entryDy=0;" parent="1" source="MggsWLU05zGPWXOIRvkV-2" target="MggsWLU05zGPWXOIRvkV-12" edge="1">
          <mxGeometry relative="1" as="geometry" />
        </mxCell>
        <mxCell id="MggsWLU05zGPWXOIRvkV-2" value="Người dùng" style="shape=umlActor;html=1;verticalLabelPosition=bottom;verticalAlign=top;align=center;" parent="1" vertex="1">
          <mxGeometry x="65" y="405" width="30" height="60" as="geometry" />
        </mxCell>
        <mxCell id="MggsWLU05zGPWXOIRvkV-44" style="rounded=0;orthogonalLoop=1;jettySize=auto;html=1;entryX=1;entryY=0.5;entryDx=0;entryDy=0;" parent="1" source="MggsWLU05zGPWXOIRvkV-3" target="MggsWLU05zGPWXOIRvkV-35" edge="1">
          <mxGeometry relative="1" as="geometry" />
        </mxCell>
        <mxCell id="MggsWLU05zGPWXOIRvkV-45" style="rounded=0;orthogonalLoop=1;jettySize=auto;html=1;entryX=1;entryY=0.5;entryDx=0;entryDy=0;" parent="1" source="MggsWLU05zGPWXOIRvkV-3" target="MggsWLU05zGPWXOIRvkV-34" edge="1">
          <mxGeometry relative="1" as="geometry" />
        </mxCell>
        <mxCell id="MggsWLU05zGPWXOIRvkV-3" value="Chủ cửa hàng" style="shape=umlActor;html=1;verticalLabelPosition=bottom;verticalAlign=top;align=center;" parent="1" vertex="1">
          <mxGeometry x="985" y="405" width="30" height="60" as="geometry" />
        </mxCell>
        <mxCell id="MggsWLU05zGPWXOIRvkV-5" value="Đăng ký" style="ellipse;whiteSpace=wrap;html=1;" parent="1" vertex="1">
          <mxGeometry x="240" y="80" width="140" height="70" as="geometry" />
        </mxCell>
        <mxCell id="MggsWLU05zGPWXOIRvkV-6" value="Tìm kiếm" style="ellipse;whiteSpace=wrap;html=1;" parent="1" vertex="1">
          <mxGeometry x="240" y="160" width="140" height="70" as="geometry" />
        </mxCell>
        <mxCell id="MggsWLU05zGPWXOIRvkV-7" value="Xem sản phẩm" style="ellipse;whiteSpace=wrap;html=1;" parent="1" vertex="1">
          <mxGeometry x="240" y="240" width="140" height="70" as="geometry" />
        </mxCell>
        <mxCell id="MggsWLU05zGPWXOIRvkV-8" value="Thêm vào giỏ hàng" style="ellipse;whiteSpace=wrap;html=1;" parent="1" vertex="1">
          <mxGeometry x="240" y="400" width="140" height="70" as="geometry" />
        </mxCell>
        <mxCell id="MggsWLU05zGPWXOIRvkV-9" value="Thanh toán" style="ellipse;whiteSpace=wrap;html=1;" parent="1" vertex="1">
          <mxGeometry x="240" y="480" width="140" height="70" as="geometry" />
        </mxCell>
        <mxCell id="MggsWLU05zGPWXOIRvkV-10" value="Xem lịch sử mua hàng" style="ellipse;whiteSpace=wrap;html=1;" parent="1" vertex="1">
          <mxGeometry x="240" y="560" width="140" height="70" as="geometry" />
        </mxCell>
        <mxCell id="MggsWLU05zGPWXOIRvkV-11" value="Chỉnh sửa hồ sơ" style="ellipse;whiteSpace=wrap;html=1;" parent="1" vertex="1">
          <mxGeometry x="240" y="640" width="140" height="70" as="geometry" />
        </mxCell>
        <mxCell id="MggsWLU05zGPWXOIRvkV-12" value="Đăng xuất&amp;nbsp;" style="ellipse;whiteSpace=wrap;html=1;" parent="1" vertex="1">
          <mxGeometry x="240" y="720" width="140" height="70" as="geometry" />
        </mxCell>
        <mxCell id="MggsWLU05zGPWXOIRvkV-13" value="Trò chuyện với Chat bot" style="ellipse;whiteSpace=wrap;html=1;" parent="1" vertex="1">
          <mxGeometry x="240" y="320" width="140" height="70" as="geometry" />
        </mxCell>
        <mxCell id="MggsWLU05zGPWXOIRvkV-14" value="Đăng nhập" style="ellipse;whiteSpace=wrap;html=1;" parent="1" vertex="1">
          <mxGeometry x="470" y="528" width="140" height="70" as="geometry" />
        </mxCell>
        <mxCell id="MggsWLU05zGPWXOIRvkV-27" value="&amp;lt;&amp;lt;include&amp;gt;&amp;gt;" style="html=1;verticalAlign=bottom;labelBackgroundColor=none;endArrow=open;endFill=0;dashed=1;rounded=0;exitX=1;exitY=0.5;exitDx=0;exitDy=0;entryX=0.5;entryY=0;entryDx=0;entryDy=0;" parent="1" source="MggsWLU05zGPWXOIRvkV-13" target="MggsWLU05zGPWXOIRvkV-14" edge="1">
          <mxGeometry width="160" relative="1" as="geometry">
            <mxPoint x="420" y="320" as="sourcePoint" />
            <mxPoint x="580" y="320" as="targetPoint" />
          </mxGeometry>
        </mxCell>
        <mxCell id="MggsWLU05zGPWXOIRvkV-29" value="&amp;lt;&amp;lt;include&amp;gt;&amp;gt;" style="html=1;verticalAlign=bottom;labelBackgroundColor=none;endArrow=open;endFill=0;dashed=1;rounded=0;exitX=1;exitY=0.5;exitDx=0;exitDy=0;entryX=0;entryY=0;entryDx=0;entryDy=0;" parent="1" source="MggsWLU05zGPWXOIRvkV-8" target="MggsWLU05zGPWXOIRvkV-14" edge="1">
          <mxGeometry width="160" relative="1" as="geometry">
            <mxPoint x="350" y="400" as="sourcePoint" />
            <mxPoint x="490" y="573" as="targetPoint" />
          </mxGeometry>
        </mxCell>
        <mxCell id="MggsWLU05zGPWXOIRvkV-30" value="&amp;lt;&amp;lt;include&amp;gt;&amp;gt;" style="html=1;verticalAlign=bottom;labelBackgroundColor=none;endArrow=open;endFill=0;dashed=1;rounded=0;exitX=1;exitY=0.5;exitDx=0;exitDy=0;entryX=0;entryY=0.5;entryDx=0;entryDy=0;" parent="1" source="MggsWLU05zGPWXOIRvkV-9" target="MggsWLU05zGPWXOIRvkV-14" edge="1">
          <mxGeometry width="160" relative="1" as="geometry">
            <mxPoint x="400" y="375" as="sourcePoint" />
            <mxPoint x="540" y="548" as="targetPoint" />
          </mxGeometry>
        </mxCell>
        <mxCell id="MggsWLU05zGPWXOIRvkV-31" value="&amp;lt;&amp;lt;include&amp;gt;&amp;gt;" style="html=1;verticalAlign=bottom;labelBackgroundColor=none;endArrow=open;endFill=0;dashed=1;rounded=0;exitX=1;exitY=0.5;exitDx=0;exitDy=0;entryX=0;entryY=0.5;entryDx=0;entryDy=0;" parent="1" source="MggsWLU05zGPWXOIRvkV-10" target="MggsWLU05zGPWXOIRvkV-14" edge="1">
          <mxGeometry width="160" relative="1" as="geometry">
            <mxPoint x="410" y="385" as="sourcePoint" />
            <mxPoint x="550" y="558" as="targetPoint" />
          </mxGeometry>
        </mxCell>
        <mxCell id="MggsWLU05zGPWXOIRvkV-32" value="&amp;lt;&amp;lt;include&amp;gt;&amp;gt;" style="html=1;verticalAlign=bottom;labelBackgroundColor=none;endArrow=open;endFill=0;dashed=1;rounded=0;exitX=1;exitY=0.5;exitDx=0;exitDy=0;entryX=0;entryY=1;entryDx=0;entryDy=0;" parent="1" source="MggsWLU05zGPWXOIRvkV-11" target="MggsWLU05zGPWXOIRvkV-14" edge="1">
          <mxGeometry width="160" relative="1" as="geometry">
            <mxPoint x="420" y="395" as="sourcePoint" />
            <mxPoint x="560" y="568" as="targetPoint" />
          </mxGeometry>
        </mxCell>
        <mxCell id="MggsWLU05zGPWXOIRvkV-33" value="&amp;lt;&amp;lt;include&amp;gt;&amp;gt;" style="html=1;verticalAlign=bottom;labelBackgroundColor=none;endArrow=open;endFill=0;dashed=1;rounded=0;exitX=1;exitY=0.5;exitDx=0;exitDy=0;entryX=0.5;entryY=1;entryDx=0;entryDy=0;" parent="1" source="MggsWLU05zGPWXOIRvkV-12" target="MggsWLU05zGPWXOIRvkV-14" edge="1">
          <mxGeometry width="160" relative="1" as="geometry">
            <mxPoint x="430" y="405" as="sourcePoint" />
            <mxPoint x="570" y="578" as="targetPoint" />
          </mxGeometry>
        </mxCell>
        <mxCell id="MggsWLU05zGPWXOIRvkV-34" value="Quản lý đơn hàng" style="ellipse;whiteSpace=wrap;html=1;" parent="1" vertex="1">
          <mxGeometry x="700" y="400" width="140" height="70" as="geometry" />
        </mxCell>
        <mxCell id="MggsWLU05zGPWXOIRvkV-35" value="Quản lý sản phẩm" style="ellipse;whiteSpace=wrap;html=1;" parent="1" vertex="1">
          <mxGeometry x="700" y="240" width="140" height="70" as="geometry" />
        </mxCell>
        <mxCell id="MggsWLU05zGPWXOIRvkV-37" value="Thêm sản phẩm" style="ellipse;whiteSpace=wrap;html=1;" parent="1" vertex="1">
          <mxGeometry x="470" y="320" width="140" height="70" as="geometry" />
        </mxCell>
        <mxCell id="MggsWLU05zGPWXOIRvkV-38" value="Xóa sản phẩm" style="ellipse;whiteSpace=wrap;html=1;" parent="1" vertex="1">
          <mxGeometry x="470" y="240" width="140" height="70" as="geometry" />
        </mxCell>
        <mxCell id="MggsWLU05zGPWXOIRvkV-39" value="Sửa sản phẩm" style="ellipse;whiteSpace=wrap;html=1;" parent="1" vertex="1">
          <mxGeometry x="470" y="160" width="140" height="70" as="geometry" />
        </mxCell>
        <mxCell id="MggsWLU05zGPWXOIRvkV-41" value="&amp;lt;&amp;lt;include&amp;gt;&amp;gt;" style="html=1;verticalAlign=bottom;labelBackgroundColor=none;endArrow=open;endFill=0;dashed=1;rounded=0;exitX=0.5;exitY=1;exitDx=0;exitDy=0;entryX=1;entryY=0;entryDx=0;entryDy=0;" parent="1" source="MggsWLU05zGPWXOIRvkV-35" target="MggsWLU05zGPWXOIRvkV-14" edge="1">
          <mxGeometry width="160" relative="1" as="geometry">
            <mxPoint x="390" y="365" as="sourcePoint" />
            <mxPoint x="530" y="538" as="targetPoint" />
          </mxGeometry>
        </mxCell>
        <mxCell id="MggsWLU05zGPWXOIRvkV-43" value="&amp;lt;&amp;lt;include&amp;gt;&amp;gt;" style="html=1;verticalAlign=bottom;labelBackgroundColor=none;endArrow=open;endFill=0;dashed=1;rounded=0;exitX=0;exitY=0.5;exitDx=0;exitDy=0;entryX=1;entryY=0.5;entryDx=0;entryDy=0;" parent="1" source="MggsWLU05zGPWXOIRvkV-34" target="MggsWLU05zGPWXOIRvkV-14" edge="1">
          <mxGeometry width="160" relative="1" as="geometry">
            <mxPoint x="780" y="320" as="sourcePoint" />
            <mxPoint x="580" y="548" as="targetPoint" />
          </mxGeometry>
        </mxCell>
        <mxCell id="MggsWLU05zGPWXOIRvkV-46" value="&amp;lt;&amp;lt;include&amp;gt;&amp;gt;" style="html=1;verticalAlign=bottom;labelBackgroundColor=none;endArrow=open;endFill=0;dashed=1;rounded=0;exitX=0;exitY=0;exitDx=0;exitDy=0;entryX=1;entryY=0.5;entryDx=0;entryDy=0;" parent="1" source="MggsWLU05zGPWXOIRvkV-35" target="MggsWLU05zGPWXOIRvkV-39" edge="1">
          <mxGeometry width="160" relative="1" as="geometry">
            <mxPoint x="780" y="320" as="sourcePoint" />
            <mxPoint x="580" y="548" as="targetPoint" />
          </mxGeometry>
        </mxCell>
        <mxCell id="MggsWLU05zGPWXOIRvkV-47" value="&amp;lt;&amp;lt;include&amp;gt;&amp;gt;" style="html=1;verticalAlign=bottom;labelBackgroundColor=none;endArrow=open;endFill=0;dashed=1;rounded=0;exitX=0;exitY=0.5;exitDx=0;exitDy=0;entryX=1;entryY=0.5;entryDx=0;entryDy=0;" parent="1" source="MggsWLU05zGPWXOIRvkV-35" target="MggsWLU05zGPWXOIRvkV-38" edge="1">
          <mxGeometry width="160" relative="1" as="geometry">
            <mxPoint x="730" y="260" as="sourcePoint" />
            <mxPoint x="660" y="205" as="targetPoint" />
          </mxGeometry>
        </mxCell>
        <mxCell id="MggsWLU05zGPWXOIRvkV-48" value="&amp;lt;&amp;lt;include&amp;gt;&amp;gt;" style="html=1;verticalAlign=bottom;labelBackgroundColor=none;endArrow=open;endFill=0;dashed=1;rounded=0;exitX=0;exitY=1;exitDx=0;exitDy=0;entryX=1;entryY=0.5;entryDx=0;entryDy=0;" parent="1" source="MggsWLU05zGPWXOIRvkV-35" target="MggsWLU05zGPWXOIRvkV-37" edge="1">
          <mxGeometry width="160" relative="1" as="geometry">
            <mxPoint x="710" y="285" as="sourcePoint" />
            <mxPoint x="660" y="285" as="targetPoint" />
          </mxGeometry>
        </mxCell>
      </root>
    </mxGraphModel>
  </diagram>
</mxfile>
